# xmcd CD database file generated by Grip 3.3.1
#
# Track frame offsets:
#       150
#       25107
#       42292
#       67517
#       83350
#       104010
#       129377
#       153517
#       179918
#       205651
#       227826
#       244255
#
# Disc length: 3654 seconds
#
# Revision: 1
# Processed by: cddbd v1.5.2PL0 Copyright (c) Steve Scherf et al.
# Submitted via: Grip 3.3.1
#
DISCID=960e440c
DTITLE=SoulandJazz.com - The Hurst Selection 1
DYEAR=2011
DGENRE=Funk
TTITLE0=Avery Sunshine - I got Sunshine (Mass Sheen Remix)
TTITLE1=Nothende - Dance To This (Unrapped Mix)
TTITLE2=Claudia Hayden - So Claudia (2011 Rework)
TTITLE3=William Green - In Your Eyes
TTITLE4=Kabanya-Chemise - Feels Like Love
TTITLE5=LeNora Jaye - Always Get Away( Ahmed Sirour Remix)
TTITLE6=Live Tropical Fish - Rubber Soul feat. Omar (Simon S. Remix)
TTITLE7=Joey Sommerville - Just Let Go feat. Alex Lattimore, Jeff Lorber
TTITLE7=& Najee
TTITLE8=Khari Simmons - Clementine Sun (Mass Sheen Remix)
TTITLE9=Randy Skinner - Wah
TTITLE10=Victoria Urusova - Sunny Day
TTITLE11=Milton Suggs - Hope
EXTD=
EXTT0=
EXTT1=
EXTT2=
EXTT3=
EXTT4=
EXTT5=
EXTT6=
EXTT7=
EXTT8=
EXTT9=
EXTT10=
EXTT11=
PLAYORDER=
